<svg width="90" height="90" viewBox="0 0 99 97" fill="none" xmlns="http://www.w3.org/2000/svg">
<circle cx="49" cy="45" r="44.5" stroke="black"/>
<path d="M61.5 31.3333H59V28.8333C59 28.3733 58.6267 28 58.1667 28C57.7067 28 57.3333 28.3733 57.3333 28.8333V31.3333H40.6667V28.8333C40.6667 28.3733 40.2933 28 39.8333 28C39.3733 28 39 28.3733 39 28.8333V31.3333H36.5C32.365 31.3333 29 34.6983 29 38.8333V60.5C29 64.635 32.365 68 36.5 68H43.1667C43.6267 68 44 67.6267 44 67.1667C44 66.7067 43.6267 66.3333 43.1667 66.3333H36.5C33.2833 66.3333 30.6667 63.7167 30.6667 60.5V43H68.1667C68.6267 43 69 42.6267 69 42.1667V38.8333C69 34.6983 65.635 31.3333 61.5 31.3333ZM67.3333 41.3333H30.6667V38.8333C30.6667 35.6167 33.2833 33 36.5 33H61.5C64.7167 33 67.3333 35.6167 67.3333 38.8333V41.3333ZM61.8867 47.5533L49.0417 60.3983C47.9567 61.4833 47.3333 62.9883 47.3333 64.5233V67.1667C47.3333 67.6267 47.7067 68 48.1667 68H50.81C52.37 68 53.8333 67.3933 54.935 66.2917L67.78 53.4467C68.5683 52.66 69 51.6133 69 50.5C69 49.3867 68.5667 48.34 67.78 47.5533C66.155 45.9283 63.51 45.9283 61.8867 47.5533ZM66.6 52.2667L53.755 65.1117C52.9683 65.8983 51.9217 66.3317 50.8083 66.3317H48.9983V64.5217C48.9983 63.425 49.4433 62.3517 50.2183 61.575L63.0633 48.73C64.0367 47.755 65.625 47.755 66.5983 48.73C67.07 49.2017 67.33 49.83 67.33 50.4983C67.33 51.1667 67.0717 51.7933 66.6 52.2667Z" fill="black"/>
</svg>
