<svg width="90" height="90" viewBox="0 0 99 97" fill="none" xmlns="http://www.w3.org/2000/svg">
<circle cx="49" cy="45" r="44.5" stroke="black"/>
<g clip-path="url(#clip0_1_4)">
<path d="M46.5 66.3333H36.5C33.2833 66.3333 30.6667 63.7167 30.6667 60.5V48.8333C30.6667 45.6167 33.2833 43 36.5 43H53.1667C54.1917 43 55.2 43.27 56.0833 43.78C56.4817 44.0117 56.9917 43.8733 57.2217 43.4767C57.4533 43.0783 57.3167 42.5683 56.9183 42.3383C56.52 42.1083 56.0983 41.9317 55.6683 41.7783V38.8333C55.6683 32.86 50.8083 28 44.835 28C38.8617 28 34 32.86 34 38.8333V41.7933C31.0967 42.8283 29 45.5783 29 48.8333V60.5C29 64.635 32.365 68 36.5 68H46.5C46.96 68 47.3333 67.6267 47.3333 67.1667C47.3333 66.7067 46.96 66.3333 46.5 66.3333ZM35.6667 38.8333C35.6667 33.7783 39.7783 29.6667 44.8333 29.6667C49.8883 29.6667 54 33.7783 54 38.8333V41.3883C53.7233 41.3583 53.4467 41.3333 53.1667 41.3333H36.5C36.215 41.3333 35.9433 41.3867 35.6667 41.4183V38.8333ZM44.8333 53C45.2933 53 45.6667 53.3733 45.6667 53.8333V57.1667C45.6667 57.6267 45.2933 58 44.8333 58C44.3733 58 44 57.6267 44 57.1667V53.8333C44 53.3733 44.3733 53 44.8333 53ZM58.1667 46.3333C52.1933 46.3333 47.3333 51.1933 47.3333 57.1667C47.3333 63.14 52.1933 68 58.1667 68C64.14 68 69 63.14 69 57.1667C69 51.1933 64.14 46.3333 58.1667 46.3333ZM58.1667 66.3333C53.1117 66.3333 49 62.22 49 57.1667C49 52.1133 53.1117 48 58.1667 48C63.2217 48 67.3333 52.1133 67.3333 57.1667C67.3333 62.22 63.2217 66.3333 58.1667 66.3333ZM63.75 54.905C64.07 55.235 64.0617 55.7633 63.73 56.0833L59.225 60.44C58.625 61.0317 57.8333 61.3283 57.04 61.3283C56.2467 61.3283 55.4583 61.0333 54.8533 60.4433L52.58 58.1983C52.2517 57.8767 52.2483 57.3483 52.5717 57.02C52.895 56.695 53.4233 56.69 53.75 57.0133L56.0217 59.255C56.5833 59.805 57.4983 59.7983 58.06 59.2483L62.57 54.885C62.9033 54.5667 63.4317 54.5733 63.75 54.905Z" fill="black"/>
</g>
<defs>
<clipPath id="clip0_1_4">
<rect width="40" height="40" fill="white" transform="translate(29 28)"/>
</clipPath>
</defs>
</svg>
