<svg width="90" height="90" viewBox="0 0 98 98" fill="none" xmlns="http://www.w3.org/2000/svg">
<circle cx="49" cy="49" r="44.5" stroke="black"/>
<path d="M44.2833 52.05L39.7267 47.4933C39.2583 47.025 39 46.4017 39 45.74C39 45.0783 39.2583 44.455 39.7267 43.985L44.3567 39.3567L45.535 40.535L40.905 45.1633C40.7517 45.3167 40.6667 45.5217 40.6667 45.74C40.6667 45.9583 40.7517 46.1617 40.905 46.315L45.4617 50.8717L44.2833 52.05ZM57.1733 46.315L52.5783 50.91L53.7567 52.0883L58.3517 47.4933C59.3183 46.5267 59.3183 44.9533 58.3517 43.985L53.6833 39.3167L52.505 40.495L57.1733 45.1633C57.4917 45.48 57.4917 45.9967 57.1733 46.315ZM69 55.6667V59.8333C69 62.13 67.13 64 64.8333 64H33.1667C30.87 64 29 62.13 29 59.8333V55.6667H32.3333V34H65.6667V55.6667H69ZM34 55.6667H43.5117L45.1783 57.3333H52.8217L54.4883 55.6667H64V35.6667H34V55.6667ZM67.3333 57.3333H55.1783L53.5117 59H44.4883L42.8217 57.3333H30.6667V59.8333C30.6667 61.2117 31.7883 62.3333 33.1667 62.3333H64.8333C66.2117 62.3333 67.3333 61.2117 67.3333 59.8333V57.3333Z" fill="black"/>
</svg>
