<svg width="90" height="90" viewBox="0 0 98 98" fill="none" xmlns="http://www.w3.org/2000/svg">
<g clip-path="url(#clip0_1_4)">
<path d="M54.8333 39C52.5367 39 50.6667 40.87 50.6667 43.1667C50.6667 45.4633 52.5367 47.3333 54.8333 47.3333C57.13 47.3333 59 45.4633 59 43.1667C59 40.87 57.13 39 54.8333 39ZM54.8333 45.6667C53.455 45.6667 52.3333 44.545 52.3333 43.1667C52.3333 41.7883 53.455 40.6667 54.8333 40.6667C56.2117 40.6667 57.3333 41.7883 57.3333 43.1667C57.3333 44.545 56.2117 45.6667 54.8333 45.6667ZM69 33.1667C69 30.87 67.13 29 64.81 29C56.5733 29.235 49.07 33.2533 42.9583 40.6683C40.315 40.7 37.6783 41.3417 35.3167 42.5267C31.48 44.4517 29 48.6283 29 53.1667V54H37.3333C39.1133 54 40.7883 54.6933 42.0483 55.9517C43.3067 57.2117 44 58.885 44 60.6667V69H44.8333C49.3717 69 53.5483 66.5217 55.4733 62.685C56.66 60.3233 57.3 57.685 57.3317 55.0417C64.745 48.93 68.765 41.425 69 33.1667ZM36.0633 44.0167C37.7867 43.1517 39.6717 42.6083 41.5917 42.415C41.4283 42.635 41.265 42.8567 41.1033 43.0817C38.515 46.6933 36.5833 50.8883 35.95 52.3333H30.6983C30.975 48.75 33.02 45.5433 36.0633 44.0167ZM53.9833 61.9367C52.455 64.98 49.25 67.025 45.6667 67.3017V62.05C47.1133 61.4167 51.3067 59.485 54.92 56.8967C55.145 56.735 55.3667 56.5733 55.5867 56.41C55.3933 58.33 54.85 60.215 53.985 61.9383L53.9833 61.9367ZM53.9483 55.5417C50.9433 57.695 47.425 59.4167 45.655 60.2267C45.5483 58.1667 44.695 56.245 43.2267 54.775C41.7567 53.305 39.835 52.4533 37.775 52.3467C38.585 50.5767 40.3067 47.0583 42.46 44.0533C46.715 38.115 54.055 30.9733 64.8333 30.6667C66.2117 30.6667 67.3333 31.7883 67.3333 33.1433C67.0267 43.945 59.885 51.285 53.9483 55.5417ZM31.8867 60.22C30.47 61.635 29.5217 66.6883 29.3467 67.6867L29.14 68.8583L30.3117 68.6517C31.31 68.4767 36.3633 67.5283 37.7783 66.1117C38.565 65.325 38.9983 64.2783 38.9983 63.165C38.9983 62.0517 38.565 61.005 37.7783 60.2183C36.2067 58.645 33.4583 58.6467 31.8867 60.22ZM36.6 64.9333C35.9567 65.5767 33.3767 66.3183 31.2217 66.7767C31.68 64.6217 32.4217 62.0417 33.065 61.3983C33.5367 60.9267 34.165 60.6667 34.8333 60.6667C35.5017 60.6667 36.1283 60.9267 36.6017 61.3983C37.075 61.87 37.3333 62.4983 37.3333 63.1667C37.3333 63.835 37.0733 64.4617 36.6017 64.935L36.6 64.9333Z" fill="black"/>
</g>
<circle cx="49" cy="49" r="44.5" stroke="black"/>
<defs>
<clipPath id="clip0_1_4">
<rect width="40" height="40" fill="white" transform="translate(29 29)"/>
</clipPath>
</defs>
</svg>
