<svg width="90" height="90" viewBox="0 0 99 97" fill="none" xmlns="http://www.w3.org/2000/svg">
<circle cx="49" cy="45" r="44.5" stroke="black"/>
<path d="M51.7933 34.2417C53.525 32.61 56.24 32.2133 58.36 33.2767L63.8033 35.9983H69V34.3317H64.1967L59.105 31.7867C56.3767 30.42 52.8833 30.9267 50.6483 33.03L49.0633 34.5333L47.3217 32.945C45.9433 31.6917 44.1583 31 42.2317 31C41.0767 31 39.9217 31.2717 38.8933 31.7883L33.8017 34.3333H29V36H34.1967L39.64 33.2783C41.6467 32.2717 44.4217 32.56 46.2 34.1767L47.8533 35.6833L41.9883 41.2433C40.4867 42.7433 40.2367 45.1033 41.41 46.7317C42.135 47.7383 43.36 48.4833 44.8083 48.4833C45.9083 48.4833 46.9667 48.0483 47.7417 47.2733L50.7483 44.3767L62.7617 53.3867L49 63.7183L34.2783 52.665H29V54.3317H33.7217L49 65.8017L64.2783 54.3317H69V52.665H64.5783L51.965 43.205L55.4767 39.8233L54.3217 38.6217L46.575 46.0833C46.055 46.6033 45.33 46.8583 44.6033 46.8083C43.86 46.7483 43.2067 46.375 42.7633 45.7583C42.0633 44.785 42.2367 43.3517 43.15 42.4383L51.7933 34.2417Z" fill="black"/>
</svg>
